<svg width="400" height="400" viewBox="0 0 400 400" xmlns="http://www.w3.org/2000/svg">
  <defs>
    <linearGradient id="darkGold" x1="0%" y1="0%" x2="100%" y2="100%">
      <stop offset="0%" style="stop-color:#FFD700;stop-opacity:1" />
      <stop offset="100%" style="stop-color:#FFA500;stop-opacity:1" />
    </linearGradient>
    <filter id="darkGlow">
      <feGaussianBlur stdDeviation="3" result="coloredBlur"/>
      <feMerge>
        <feMergeNode in="coloredBlur"/>
        <feMergeNode in="SourceGraphic"/>
      </feMerge>
    </filter>
  </defs>
  
  <!-- Fondo oscuro -->
  <rect width="400" height="400" fill="#1F2937"/>
  
  <!-- Ficha principal -->
  <g transform="translate(200, 200)">
    <rect x="-60" y="-80" width="120" height="160" rx="15" ry="15" 
          fill="url(#darkGold)" filter="url(#darkGlow)"/>
    <rect x="-58" y="-78" width="116" height="156" rx="13" ry="13" 
          fill="url(#darkGold)" opacity="0.95"/>
    <path d="M 0 -50 L 15 -15 L 50 -15 L 20 5 L 30 40 L 0 20 L -30 40 L -20 5 L -50 -15 L -15 -15 Z" 
          fill="#FFFFFF" filter="url(#darkGlow)"/>
  </g>
  
  <!-- Fichas decorativas -->
  <g transform="translate(120, 120)">
    <rect x="-25" y="-35" width="50" height="70" rx="8" ry="8" fill="#EF4444"/>
    <text x="0" y="8" font-family="Arial Black" font-size="28" fill="#FFFFFF" text-anchor="middle" font-weight="900">7</text>
  </g>
  
  <g transform="translate(280, 120)">
    <rect x="-25" y="-35" width="50" height="70" rx="8" ry="8" fill="#3B82F6"/>
    <text x="0" y="8" font-family="Arial Black" font-size="28" fill="#FFFFFF" text-anchor="middle" font-weight="900">13</text>
  </g>
  
  <g transform="translate(120, 280)">
    <rect x="-25" y="-35" width="50" height="70" rx="8" ry="8" fill="#FBBF24"/>
    <text x="0" y="8" font-family="Arial Black" font-size="28" fill="#1F2937" text-anchor="middle" font-weight="900">1</text>
  </g>
  
  <g transform="translate(280, 280)">
    <rect x="-25" y="-35" width="50" height="70" rx="8" ry="8" fill="#374151"/>
    <text x="0" y="8" font-family="Arial Black" font-size="28" fill="#FFFFFF" text-anchor="middle" font-weight="900">10</text>
  </g>
  
  <!-- Texto -->
  <text x="200" y="350" font-family="Arial Black" font-size="42" 
        fill="url(#darkGold)" text-anchor="middle" font-weight="900" 
        letter-spacing="2" filter="url(#darkGlow)">RUMMIKUB</text>
  
  <text x="200" y="375" font-family="Arial" font-size="18" 
        fill="#9CA3AF" text-anchor="middle" font-weight="bold" letter-spacing="4">PRO</text>
  
  <text x="200" y="390" font-family="Arial" font-size="10" 
        fill="#6B7280" text-anchor="middle">© 2024 LLC&amp;JTH. All rights reserved.</text>
</svg>
