<svg width="400" height="400" viewBox="0 0 400 400" xmlns="http://www.w3.org/2000/svg">
  <!-- Versión monocromática para impresión -->
  
  <!-- Ficha principal -->
  <g transform="translate(200, 200)">
    <rect x="-60" y="-80" width="120" height="160" rx="15" ry="15" 
          fill="#333333" stroke="#000000" stroke-width="2"/>
    <rect x="-58" y="-78" width="116" height="156" rx="13" ry="13" 
          fill="#555555"/>
    <path d="M 0 -50 L 15 -15 L 50 -15 L 20 5 L 30 40 L 0 20 L -30 40 L -20 5 L -50 -15 L -15 -15 Z" 
          fill="#FFFFFF"/>
  </g>
  
  <!-- Fichas decorativas -->
  <g transform="translate(120, 120)">
    <rect x="-25" y="-35" width="50" height="70" rx="8" ry="8" fill="#666666" stroke="#000000" stroke-width="1"/>
    <text x="0" y="8" font-family="Arial Black" font-size="28" fill="#FFFFFF" text-anchor="middle" font-weight="900">7</text>
  </g>
  
  <g transform="translate(280, 120)">
    <rect x="-25" y="-35" width="50" height="70" rx="8" ry="8" fill="#666666" stroke="#000000" stroke-width="1"/>
    <text x="0" y="8" font-family="Arial Black" font-size="28" fill="#FFFFFF" text-anchor="middle" font-weight="900">13</text>
  </g>
  
  <g transform="translate(120, 280)">
    <rect x="-25" y="-35" width="50" height="70" rx="8" ry="8" fill="#CCCCCC" stroke="#000000" stroke-width="1"/>
    <text x="0" y="8" font-family="Arial Black" font-size="28" fill="#000000" text-anchor="middle" font-weight="900">1</text>
  </g>
  
  <g transform="translate(280, 280)">
    <rect x="-25" y="-35" width="50" height="70" rx="8" ry="8" fill="#333333" stroke="#000000" stroke-width="1"/>
    <text x="0" y="8" font-family="Arial Black" font-size="28" fill="#FFFFFF" text-anchor="middle" font-weight="900">10</text>
  </g>
  
  <!-- Texto -->
  <text x="200" y="350" font-family="Arial Black" font-size="42" 
        fill="#000000" text-anchor="middle" font-weight="900" letter-spacing="2">RUMMIKUB</text>
  
  <text x="200" y="375" font-family="Arial" font-size="18" 
        fill="#666666" text-anchor="middle" font-weight="bold" letter-spacing="4">PRO</text>
  
  <text x="200" y="390" font-family="Arial" font-size="10" 
        fill="#999999" text-anchor="middle">© 2024 LLC&amp;JTH. All rights reserved.</text>
</svg>
